<mxfile host="app.diagrams.net" modified="2023-12-03T17:42:21.038Z" agent="Mozilla/5.0 (Windows NT 10.0; Win64; x64) AppleWebKit/537.36 (KHTML, like Gecko) Chrome/119.0.0.0 Safari/537.36" etag="m2IubDgLiB4MgybX2Agh" version="22.1.5" type="github">
  <diagram name="Seite-1" id="iST5FQogwhZrNEV7VQwE">
    <mxGraphModel dx="1434" dy="1927" grid="1" gridSize="10" guides="1" tooltips="1" connect="1" arrows="1" fold="1" page="1" pageScale="1" pageWidth="827" pageHeight="1169" math="0" shadow="0">
      <root>
        <mxCell id="0" />
        <mxCell id="1" parent="0" />
        <mxCell id="dcMxioWpRHeYDCzmuS5D-1" style="edgeStyle=orthogonalEdgeStyle;rounded=0;orthogonalLoop=1;jettySize=auto;html=1;exitX=1;exitY=0.3333333333333333;exitDx=0;exitDy=0;exitPerimeter=0;labelBackgroundColor=none;strokeColor=#736CA8;fontColor=default;endArrow=none;endFill=0;" edge="1" parent="1" source="dcMxioWpRHeYDCzmuS5D-3" target="dcMxioWpRHeYDCzmuS5D-33">
          <mxGeometry relative="1" as="geometry" />
        </mxCell>
        <mxCell id="dcMxioWpRHeYDCzmuS5D-2" style="edgeStyle=orthogonalEdgeStyle;rounded=0;orthogonalLoop=1;jettySize=auto;html=1;exitX=1;exitY=1;exitDx=0;exitDy=0;exitPerimeter=0;labelBackgroundColor=none;strokeColor=#736CA8;fontColor=default;endArrow=none;endFill=0;" edge="1" parent="1" source="dcMxioWpRHeYDCzmuS5D-3" target="dcMxioWpRHeYDCzmuS5D-34">
          <mxGeometry relative="1" as="geometry">
            <Array as="points">
              <mxPoint x="477" y="150" />
            </Array>
          </mxGeometry>
        </mxCell>
        <mxCell id="dcMxioWpRHeYDCzmuS5D-3" value="Cliente&lt;br&gt;" style="shape=umlActor;verticalLabelPosition=bottom;verticalAlign=top;html=1;labelBackgroundColor=none;fillColor=#5D7F99;strokeColor=#D0CEE2;fontColor=#1A1A1A;" vertex="1" parent="1">
          <mxGeometry x="100" y="90" width="30" height="60" as="geometry" />
        </mxCell>
        <mxCell id="dcMxioWpRHeYDCzmuS5D-4" style="edgeStyle=orthogonalEdgeStyle;rounded=0;orthogonalLoop=1;jettySize=auto;html=1;endArrow=none;endFill=0;strokeColor=#5d7f99;" edge="1" parent="1" source="dcMxioWpRHeYDCzmuS5D-5">
          <mxGeometry relative="1" as="geometry">
            <mxPoint x="250" y="700" as="targetPoint" />
          </mxGeometry>
        </mxCell>
        <mxCell id="dcMxioWpRHeYDCzmuS5D-5" value="Gestionar&lt;br&gt;clientes" style="strokeWidth=2;html=1;shape=mxgraph.flowchart.start_1;whiteSpace=wrap;labelBackgroundColor=none;fillColor=#5D7F99;strokeColor=#D0CEE2;fontColor=#1A1A1A;" vertex="1" parent="1">
          <mxGeometry x="200" y="360" width="100" height="60" as="geometry" />
        </mxCell>
        <mxCell id="dcMxioWpRHeYDCzmuS5D-6" value="Administrador&lt;br&gt;" style="shape=umlActor;verticalLabelPosition=bottom;verticalAlign=top;html=1;labelBackgroundColor=none;fillColor=#5D7F99;strokeColor=#D0CEE2;fontColor=#1A1A1A;" vertex="1" parent="1">
          <mxGeometry x="396" y="680" width="30" height="60" as="geometry" />
        </mxCell>
        <mxCell id="dcMxioWpRHeYDCzmuS5D-7" value="Creación" style="strokeWidth=2;html=1;shape=mxgraph.flowchart.start_1;whiteSpace=wrap;labelBackgroundColor=none;fillColor=#5D7F99;strokeColor=#D0CEE2;fontColor=#1A1A1A;" vertex="1" parent="1">
          <mxGeometry x="657.05" y="250" width="100" height="60" as="geometry" />
        </mxCell>
        <mxCell id="dcMxioWpRHeYDCzmuS5D-8" value="Eliminación" style="strokeWidth=2;html=1;shape=mxgraph.flowchart.start_1;whiteSpace=wrap;labelBackgroundColor=none;fillColor=#5D7F99;strokeColor=#D0CEE2;fontColor=#1A1A1A;" vertex="1" parent="1">
          <mxGeometry x="657.05" y="330" width="100" height="60" as="geometry" />
        </mxCell>
        <mxCell id="dcMxioWpRHeYDCzmuS5D-9" value="Actualización" style="strokeWidth=2;html=1;shape=mxgraph.flowchart.start_1;whiteSpace=wrap;labelBackgroundColor=none;fillColor=#5D7F99;strokeColor=#D0CEE2;fontColor=#1A1A1A;" vertex="1" parent="1">
          <mxGeometry x="657.05" y="430" width="100" height="60" as="geometry" />
        </mxCell>
        <mxCell id="dcMxioWpRHeYDCzmuS5D-10" value="Gestionar&lt;br&gt;Operaciones" style="strokeWidth=2;html=1;shape=mxgraph.flowchart.start_1;whiteSpace=wrap;labelBackgroundColor=none;fillColor=#5D7F99;strokeColor=#D0CEE2;fontColor=#1A1A1A;" vertex="1" parent="1">
          <mxGeometry x="361" y="490" width="100" height="60" as="geometry" />
        </mxCell>
        <mxCell id="dcMxioWpRHeYDCzmuS5D-11" value="" style="endArrow=block;dashed=1;endFill=0;endSize=12;html=1;rounded=0;exitX=0;exitY=0.5;exitDx=0;exitDy=0;exitPerimeter=0;entryX=1;entryY=0.5;entryDx=0;entryDy=0;entryPerimeter=0;labelBackgroundColor=none;strokeColor=#736CA8;fontColor=default;" edge="1" parent="1" source="dcMxioWpRHeYDCzmuS5D-7" target="dcMxioWpRHeYDCzmuS5D-18">
          <mxGeometry width="160" relative="1" as="geometry">
            <mxPoint x="327" y="510" as="sourcePoint" />
            <mxPoint x="487" y="510" as="targetPoint" />
          </mxGeometry>
        </mxCell>
        <mxCell id="dcMxioWpRHeYDCzmuS5D-12" value="&amp;lt;&amp;lt;include&amp;gt;&amp;gt;" style="edgeLabel;html=1;align=center;verticalAlign=middle;resizable=0;points=[];labelBackgroundColor=none;fontColor=#1A1A1A;" connectable="0" vertex="1" parent="dcMxioWpRHeYDCzmuS5D-11">
          <mxGeometry x="-0.2002" y="1" relative="1" as="geometry">
            <mxPoint as="offset" />
          </mxGeometry>
        </mxCell>
        <mxCell id="dcMxioWpRHeYDCzmuS5D-13" value="" style="endArrow=block;dashed=1;endFill=0;endSize=12;html=1;rounded=0;labelBackgroundColor=none;strokeColor=#736CA8;fontColor=default;" edge="1" parent="1" source="dcMxioWpRHeYDCzmuS5D-18">
          <mxGeometry width="160" relative="1" as="geometry">
            <mxPoint x="657" y="360" as="sourcePoint" />
            <mxPoint x="477" y="360" as="targetPoint" />
          </mxGeometry>
        </mxCell>
        <mxCell id="dcMxioWpRHeYDCzmuS5D-14" value="" style="endArrow=block;dashed=1;endFill=0;endSize=12;html=1;rounded=0;labelBackgroundColor=none;strokeColor=#736CA8;fontColor=default;" edge="1" parent="1">
          <mxGeometry width="160" relative="1" as="geometry">
            <mxPoint x="657" y="460" as="sourcePoint" />
            <mxPoint x="527" y="360" as="targetPoint" />
          </mxGeometry>
        </mxCell>
        <mxCell id="dcMxioWpRHeYDCzmuS5D-15" value="&amp;lt;&amp;lt;include&amp;gt;&amp;gt;" style="edgeLabel;html=1;align=center;verticalAlign=middle;resizable=0;points=[];labelBackgroundColor=none;fontColor=#1A1A1A;" connectable="0" vertex="1" parent="dcMxioWpRHeYDCzmuS5D-14">
          <mxGeometry x="-0.3483" y="-1" relative="1" as="geometry">
            <mxPoint as="offset" />
          </mxGeometry>
        </mxCell>
        <mxCell id="dcMxioWpRHeYDCzmuS5D-16" value="" style="endArrow=block;dashed=1;endFill=0;endSize=12;html=1;rounded=0;labelBackgroundColor=none;strokeColor=#736CA8;fontColor=default;" edge="1" parent="1" target="dcMxioWpRHeYDCzmuS5D-18">
          <mxGeometry width="160" relative="1" as="geometry">
            <mxPoint x="657" y="360" as="sourcePoint" />
            <mxPoint x="477" y="360" as="targetPoint" />
          </mxGeometry>
        </mxCell>
        <mxCell id="dcMxioWpRHeYDCzmuS5D-17" value="&amp;lt;&amp;lt;include&amp;gt;&amp;gt;" style="edgeLabel;html=1;align=center;verticalAlign=middle;resizable=0;points=[];labelBackgroundColor=none;fontColor=#1A1A1A;" connectable="0" vertex="1" parent="dcMxioWpRHeYDCzmuS5D-16">
          <mxGeometry x="-0.2703" relative="1" as="geometry">
            <mxPoint as="offset" />
          </mxGeometry>
        </mxCell>
        <mxCell id="dcMxioWpRHeYDCzmuS5D-18" value="Gestionar" style="strokeWidth=2;html=1;shape=mxgraph.flowchart.start_1;whiteSpace=wrap;labelBackgroundColor=none;fillColor=#5D7F99;strokeColor=#D0CEE2;fontColor=#1A1A1A;" vertex="1" parent="1">
          <mxGeometry x="427" y="330" width="100" height="60" as="geometry" />
        </mxCell>
        <mxCell id="dcMxioWpRHeYDCzmuS5D-19" value="&amp;lt;&amp;lt;extends&amp;gt;&amp;gt;" style="endArrow=open;endSize=12;dashed=1;html=1;rounded=0;entryX=0.5;entryY=0;entryDx=0;entryDy=0;entryPerimeter=0;labelBackgroundColor=none;strokeColor=#736CA8;fontColor=default;" edge="1" parent="1" source="dcMxioWpRHeYDCzmuS5D-18" target="dcMxioWpRHeYDCzmuS5D-10">
          <mxGeometry width="160" relative="1" as="geometry">
            <mxPoint x="358" y="510" as="sourcePoint" />
            <mxPoint x="408.7692307692307" y="410" as="targetPoint" />
          </mxGeometry>
        </mxCell>
        <mxCell id="dcMxioWpRHeYDCzmuS5D-20" value="Gestionar&lt;br&gt;Facturas" style="strokeWidth=2;html=1;shape=mxgraph.flowchart.start_1;whiteSpace=wrap;labelBackgroundColor=none;fillColor=#5D7F99;strokeColor=#D0CEE2;fontColor=#1A1A1A;" vertex="1" parent="1">
          <mxGeometry x="437" y="570" width="100" height="60" as="geometry" />
        </mxCell>
        <mxCell id="dcMxioWpRHeYDCzmuS5D-21" value="&amp;lt;&amp;lt;extends&amp;gt;&amp;gt;" style="endArrow=open;endSize=12;dashed=1;html=1;rounded=0;exitX=0.5;exitY=1;exitDx=0;exitDy=0;exitPerimeter=0;entryX=0.5;entryY=0;entryDx=0;entryDy=0;entryPerimeter=0;labelBackgroundColor=none;strokeColor=#736CA8;fontColor=default;" edge="1" parent="1" source="dcMxioWpRHeYDCzmuS5D-18" target="dcMxioWpRHeYDCzmuS5D-20">
          <mxGeometry width="160" relative="1" as="geometry">
            <mxPoint x="528" y="530" as="sourcePoint" />
            <mxPoint x="458" y="440" as="targetPoint" />
          </mxGeometry>
        </mxCell>
        <mxCell id="dcMxioWpRHeYDCzmuS5D-22" value="Gestionar Empaquetados" style="strokeWidth=2;html=1;shape=mxgraph.flowchart.start_1;whiteSpace=wrap;labelBackgroundColor=none;fillColor=#5D7F99;strokeColor=#D0CEE2;fontColor=#1A1A1A;" vertex="1" parent="1">
          <mxGeometry x="547" y="530" width="100" height="60" as="geometry" />
        </mxCell>
        <mxCell id="dcMxioWpRHeYDCzmuS5D-23" value="&amp;lt;&amp;lt;extends&amp;gt;&amp;gt;" style="endArrow=open;endSize=12;dashed=1;html=1;rounded=0;entryX=0.43;entryY=-0.05;entryDx=0;entryDy=0;entryPerimeter=0;exitX=0.855;exitY=0.855;exitDx=0;exitDy=0;exitPerimeter=0;labelBackgroundColor=none;strokeColor=#736CA8;fontColor=default;" edge="1" parent="1" source="dcMxioWpRHeYDCzmuS5D-18" target="dcMxioWpRHeYDCzmuS5D-22">
          <mxGeometry width="160" relative="1" as="geometry">
            <mxPoint x="550" y="410" as="sourcePoint" />
            <mxPoint x="538" y="380" as="targetPoint" />
          </mxGeometry>
        </mxCell>
        <mxCell id="dcMxioWpRHeYDCzmuS5D-24" value="&amp;lt;&amp;lt;extends&amp;gt;&amp;gt;" style="endArrow=open;endSize=12;dashed=1;html=1;rounded=0;entryX=0.855;entryY=0.145;entryDx=0;entryDy=0;entryPerimeter=0;exitX=0.145;exitY=0.855;exitDx=0;exitDy=0;exitPerimeter=0;labelBackgroundColor=none;strokeColor=#736CA8;fontColor=default;" edge="1" parent="1" source="dcMxioWpRHeYDCzmuS5D-18" target="dcMxioWpRHeYDCzmuS5D-27">
          <mxGeometry x="-0.0017" width="160" relative="1" as="geometry">
            <mxPoint x="360" y="360" as="sourcePoint" />
            <mxPoint x="361" y="330" as="targetPoint" />
            <mxPoint as="offset" />
          </mxGeometry>
        </mxCell>
        <mxCell id="dcMxioWpRHeYDCzmuS5D-25" style="edgeStyle=orthogonalEdgeStyle;rounded=0;orthogonalLoop=1;jettySize=auto;html=1;entryX=0.58;entryY=0.983;entryDx=0;entryDy=0;entryPerimeter=0;labelBackgroundColor=none;strokeColor=#736CA8;fontColor=default;endArrow=none;endFill=0;" edge="1" parent="1" source="dcMxioWpRHeYDCzmuS5D-6" target="dcMxioWpRHeYDCzmuS5D-22">
          <mxGeometry relative="1" as="geometry">
            <Array as="points">
              <mxPoint x="605" y="700" />
            </Array>
          </mxGeometry>
        </mxCell>
        <mxCell id="dcMxioWpRHeYDCzmuS5D-26" style="edgeStyle=orthogonalEdgeStyle;rounded=0;orthogonalLoop=1;jettySize=auto;html=1;exitX=0.5;exitY=0;exitDx=0;exitDy=0;exitPerimeter=0;entryX=0.44;entryY=1;entryDx=0;entryDy=0;entryPerimeter=0;labelBackgroundColor=none;strokeColor=#736CA8;fontColor=default;endArrow=none;endFill=0;" edge="1" parent="1" source="dcMxioWpRHeYDCzmuS5D-6" target="dcMxioWpRHeYDCzmuS5D-20">
          <mxGeometry relative="1" as="geometry" />
        </mxCell>
        <mxCell id="dcMxioWpRHeYDCzmuS5D-27" value="Gestionar&lt;br&gt;Productos" style="strokeWidth=2;html=1;shape=mxgraph.flowchart.start_1;whiteSpace=wrap;labelBackgroundColor=none;fillColor=#5D7F99;strokeColor=#D0CEE2;fontColor=#1A1A1A;" vertex="1" parent="1">
          <mxGeometry x="260" y="430" width="100" height="60" as="geometry" />
        </mxCell>
        <mxCell id="dcMxioWpRHeYDCzmuS5D-28" style="edgeStyle=orthogonalEdgeStyle;rounded=0;orthogonalLoop=1;jettySize=auto;html=1;exitX=0.25;exitY=0.1;exitDx=0;exitDy=0;exitPerimeter=0;entryX=0.37;entryY=0.95;entryDx=0;entryDy=0;entryPerimeter=0;labelBackgroundColor=none;strokeColor=#736CA8;fontColor=default;endArrow=none;endFill=0;" edge="1" parent="1" source="dcMxioWpRHeYDCzmuS5D-6" target="dcMxioWpRHeYDCzmuS5D-10">
          <mxGeometry relative="1" as="geometry" />
        </mxCell>
        <mxCell id="dcMxioWpRHeYDCzmuS5D-29" style="edgeStyle=orthogonalEdgeStyle;rounded=0;orthogonalLoop=1;jettySize=auto;html=1;exitX=0;exitY=0.3333333333333333;exitDx=0;exitDy=0;exitPerimeter=0;entryX=0.5;entryY=1;entryDx=0;entryDy=0;entryPerimeter=0;labelBackgroundColor=none;strokeColor=#736CA8;fontColor=default;endArrow=none;endFill=0;" edge="1" parent="1" source="dcMxioWpRHeYDCzmuS5D-6" target="dcMxioWpRHeYDCzmuS5D-27">
          <mxGeometry relative="1" as="geometry" />
        </mxCell>
        <mxCell id="dcMxioWpRHeYDCzmuS5D-30" value="Nueva&lt;br&gt;Operacion" style="strokeWidth=2;html=1;shape=mxgraph.flowchart.start_1;whiteSpace=wrap;labelBackgroundColor=none;fillColor=#5D7F99;strokeColor=#D0CEE2;fontColor=#1A1A1A;" vertex="1" parent="1">
          <mxGeometry x="657.05" y="10" width="100" height="60" as="geometry" />
        </mxCell>
        <mxCell id="dcMxioWpRHeYDCzmuS5D-31" value="" style="endArrow=block;dashed=1;endFill=0;endSize=12;html=1;rounded=0;exitX=0.5;exitY=0;exitDx=0;exitDy=0;exitPerimeter=0;entryX=0.5;entryY=1;entryDx=0;entryDy=0;entryPerimeter=0;labelBackgroundColor=none;strokeColor=#736CA8;fontColor=default;" edge="1" parent="1" source="dcMxioWpRHeYDCzmuS5D-7" target="dcMxioWpRHeYDCzmuS5D-30">
          <mxGeometry width="160" relative="1" as="geometry">
            <mxPoint x="667" y="290" as="sourcePoint" />
            <mxPoint x="537" y="370" as="targetPoint" />
          </mxGeometry>
        </mxCell>
        <mxCell id="dcMxioWpRHeYDCzmuS5D-32" value="&amp;lt;&amp;lt;extends&amp;gt;&amp;gt;" style="edgeLabel;html=1;align=center;verticalAlign=middle;resizable=0;points=[];fontSize=11;labelBackgroundColor=none;fontColor=#1A1A1A;" connectable="0" vertex="1" parent="dcMxioWpRHeYDCzmuS5D-31">
          <mxGeometry x="-0.4775" relative="1" as="geometry">
            <mxPoint y="-33" as="offset" />
          </mxGeometry>
        </mxCell>
        <mxCell id="dcMxioWpRHeYDCzmuS5D-33" value="Seguir&lt;br&gt;Operacion" style="strokeWidth=2;html=1;shape=mxgraph.flowchart.start_1;whiteSpace=wrap;labelBackgroundColor=none;fillColor=#5D7F99;strokeColor=#D0CEE2;fontColor=#1A1A1A;" vertex="1" parent="1">
          <mxGeometry x="290" y="80" width="100" height="60" as="geometry" />
        </mxCell>
        <mxCell id="dcMxioWpRHeYDCzmuS5D-34" value="Relizar&lt;br&gt;pago" style="strokeWidth=2;html=1;shape=mxgraph.flowchart.start_1;whiteSpace=wrap;labelBackgroundColor=none;fillColor=#5D7F99;strokeColor=#D0CEE2;fontColor=#1A1A1A;" vertex="1" parent="1">
          <mxGeometry x="427" y="10" width="100" height="60" as="geometry" />
        </mxCell>
        <mxCell id="dcMxioWpRHeYDCzmuS5D-35" value="Extender&lt;br&gt;Factura" style="strokeWidth=2;html=1;shape=mxgraph.flowchart.start_1;whiteSpace=wrap;labelBackgroundColor=none;fillColor=#5D7F99;strokeColor=#D0CEE2;fontColor=#1A1A1A;" vertex="1" parent="1">
          <mxGeometry x="70" y="410" width="100" height="60" as="geometry" />
        </mxCell>
        <mxCell id="dcMxioWpRHeYDCzmuS5D-36" style="edgeStyle=orthogonalEdgeStyle;rounded=0;orthogonalLoop=1;jettySize=auto;html=1;exitX=0;exitY=0.3333333333333333;exitDx=0;exitDy=0;exitPerimeter=0;entryX=0.5;entryY=1;entryDx=0;entryDy=0;entryPerimeter=0;labelBackgroundColor=none;strokeColor=#736CA8;fontColor=default;endArrow=none;endFill=0;" edge="1" parent="1" source="dcMxioWpRHeYDCzmuS5D-6" target="dcMxioWpRHeYDCzmuS5D-35">
          <mxGeometry relative="1" as="geometry" />
        </mxCell>
        <mxCell id="dcMxioWpRHeYDCzmuS5D-37" value="" style="endArrow=block;dashed=1;endFill=0;endSize=12;html=1;rounded=0;labelBackgroundColor=none;strokeColor=#736CA8;fontColor=default;" edge="1" parent="1">
          <mxGeometry width="160" relative="1" as="geometry">
            <mxPoint x="650" y="40" as="sourcePoint" />
            <mxPoint x="530" y="40" as="targetPoint" />
          </mxGeometry>
        </mxCell>
        <mxCell id="dcMxioWpRHeYDCzmuS5D-38" value="&amp;lt;&amp;lt;include&amp;gt;&amp;gt;" style="edgeLabel;html=1;align=center;verticalAlign=middle;resizable=0;points=[];labelBackgroundColor=none;fontColor=#1A1A1A;rotation=0;" connectable="0" vertex="1" parent="dcMxioWpRHeYDCzmuS5D-37">
          <mxGeometry x="-0.231" y="1" relative="1" as="geometry">
            <mxPoint x="-4" y="9" as="offset" />
          </mxGeometry>
        </mxCell>
        <mxCell id="dcMxioWpRHeYDCzmuS5D-39" value="Ver factura" style="line;strokeWidth=2;direction=south;html=1;labelBackgroundColor=none;fillColor=#5D7F99;strokeColor=#D0CEE2;fontColor=#1A1A1A;" vertex="1" parent="1">
          <mxGeometry x="110" y="180" width="10" height="230" as="geometry" />
        </mxCell>
        <mxCell id="dcMxioWpRHeYDCzmuS5D-40" value="Login" style="strokeWidth=2;html=1;shape=mxgraph.flowchart.start_1;whiteSpace=wrap;strokeColor=#D0CEE2;fontColor=#1A1A1A;fillColor=#5D7F99;" vertex="1" parent="1">
          <mxGeometry x="170" width="100" height="60" as="geometry" />
        </mxCell>
        <mxCell id="dcMxioWpRHeYDCzmuS5D-41" style="edgeStyle=orthogonalEdgeStyle;rounded=0;orthogonalLoop=1;jettySize=auto;html=1;exitX=0.5;exitY=0;exitDx=0;exitDy=0;exitPerimeter=0;entryX=0;entryY=0.5;entryDx=0;entryDy=0;entryPerimeter=0;endArrow=none;endFill=0;strokeColor=#5d7f99;" edge="1" parent="1" source="dcMxioWpRHeYDCzmuS5D-3" target="dcMxioWpRHeYDCzmuS5D-40">
          <mxGeometry relative="1" as="geometry" />
        </mxCell>
        <mxCell id="dcMxioWpRHeYDCzmuS5D-42" value="&amp;lt;&amp;lt;extends&amp;gt;&amp;gt;" style="endArrow=open;endSize=12;dashed=1;html=1;rounded=0;entryX=1;entryY=0.5;entryDx=0;entryDy=0;entryPerimeter=0;exitX=0.145;exitY=0.855;exitDx=0;exitDy=0;exitPerimeter=0;labelBackgroundColor=none;strokeColor=#736CA8;fontColor=default;" edge="1" parent="1" target="dcMxioWpRHeYDCzmuS5D-5">
          <mxGeometry x="-0.0017" width="160" relative="1" as="geometry">
            <mxPoint x="427" y="362" as="sourcePoint" />
            <mxPoint x="331" y="420" as="targetPoint" />
            <mxPoint as="offset" />
          </mxGeometry>
        </mxCell>
      </root>
    </mxGraphModel>
  </diagram>
</mxfile>
